<svg width="36" height="32" viewBox="0 0 36 32" fill="none" xmlns="http://www.w3.org/2000/svg">
<path fill-rule="evenodd" clip-rule="evenodd" d="M0 2.66667C0 1.95942 0.270917 1.28115 0.753154 0.781049C1.23539 0.280952 1.88944 0 2.57143 0H33.4286C34.1106 0 34.7646 0.280952 35.2468 0.781049C35.7291 1.28115 36 1.95942 36 2.66667C36 3.37391 35.7291 4.05219 35.2468 4.55228C34.7646 5.05238 34.1106 5.33333 33.4286 5.33333H2.57143C1.88944 5.33333 1.23539 5.05238 0.753154 4.55228C0.270917 4.05219 0 3.37391 0 2.66667ZM0 16C0 15.2928 0.270917 14.6145 0.753154 14.1144C1.23539 13.6143 1.88944 13.3333 2.57143 13.3333H33.4286C34.1106 13.3333 34.7646 13.6143 35.2468 14.1144C35.7291 14.6145 36 15.2928 36 16C36 16.7072 35.7291 17.3855 35.2468 17.8856C34.7646 18.3857 34.1106 18.6667 33.4286 18.6667H2.57143C1.88944 18.6667 1.23539 18.3857 0.753154 17.8856C0.270917 17.3855 0 16.7072 0 16ZM0 29.3333C0 28.6261 0.270917 27.9478 0.753154 27.4477C1.23539 26.9476 1.88944 26.6667 2.57143 26.6667H33.4286C34.1106 26.6667 34.7646 26.9476 35.2468 27.4477C35.7291 27.9478 36 28.6261 36 29.3333C36 30.0406 35.7291 30.7189 35.2468 31.219C34.7646 31.7191 34.1106 32 33.4286 32H2.57143C1.88944 32 1.23539 31.7191 0.753154 31.219C0.270917 30.7189 0 30.0406 0 29.3333Z" fill="url(#paint0_linear_1_9)"/>
<defs>
<linearGradient id="paint0_linear_1_9" x1="0" y1="0" x2="36" y2="32" gradientUnits="userSpaceOnUse">
<stop stop-color="#EB6636"/>
<stop offset="1" stop-color="#F6A436"/>
</linearGradient>
</defs>
</svg>
